<?xml version="1.0" encoding="utf-8"?>
<svg version="1.1" xmlns:xlink="http://www.w3.org/1999/xlink" width="192px" height="58px" xmlns="http://www.w3.org/2000/svg">
  <g transform="matrix(1 0 0 1 -1303 -506 )">
    <path d="M 1303 541.176470588235  C 1303 541.176470588235  1303 522  1303 522  C 1303 513.163444002707  1310.16344400271 506  1319 506  C 1319 506  1479 506  1479 506  C 1487.83655599729 506  1495 513.163444002707  1495 522  C 1495 522  1495 541.176470588235  1495 541.176470588235  C 1495 550.013026585528  1487.83655599729 557.176470588235  1479 557.176470588235  C 1479 557.176470588235  1354.6 557.176470588235  1354.6 557.176470588235  C 1354.6 557.176470588235  1344.6 564  1344.6 564  C 1344.6 564  1334.6 557.176470588235  1334.6 557.176470588235  C 1334.6 557.176470588235  1319 557.176470588235  1319 557.176470588235  C 1310.16344400271 557.176470588235  1303 550.013026585528  1303 541.176470588235  Z " fill-rule="nonzero" fill="#000000" stroke="none" fill-opacity="0.470588235294118" />
  </g>
</svg>